<svg width="77" height="23" viewBox="0 0 77 23" fill="none" xmlns="http://www.w3.org/2000/svg">
<path d="M24.5393 11.4006C24.5393 17.6586 19.2751 22.7305 12.7798 22.7305C6.50724 22.7305 1.38526 18.0043 1.03885 12.0443C1.60177 11.8655 2.43069 11.9013 2.70287 12.533C4.27411 16.1865 7.0516 18.8685 10.9549 19.4645C14.283 19.9711 16.4852 18.7433 17.5554 17.5573C20.6545 14.1363 20.9453 6.99622 12.9097 2.95537C11.654 2.32361 12.1515 0.124916 13.5681 0.124916H13.633C14.412 0.124916 15.6715 0.312255 16.2947 0.562041C20.882 2.40064 24.5393 6.35851 24.5393 11.4006Z" fill="url(#paint0_linear)"/>
<path d="M30.8244 1.6711C26.5439 1.96412 22.3263 3.38379 18.4607 5.84421C16.6067 7.02642 15.0048 8.29958 13.3083 9.94154L12.468 10.7549L12.1423 10.5124C11.0499 9.69398 9.48999 8.80985 8.00362 8.16317C5.69791 7.15778 3.47098 6.65761 1.28082 6.64751C0.398452 6.64246 0.261895 6.65256 0.135843 6.7334C0.0097904 6.81423 -0.0112184 6.85465 0.00453821 7.03653L0.0202948 7.24872L0.72934 7.60237C3.513 8.99678 6.18111 10.9116 9.23789 13.7004C10.1308 14.5138 11.8482 16.2265 12.1791 16.6357C12.3787 16.8833 12.7201 17.0348 13.0667 17.0348C13.5867 17.0348 13.6812 16.9641 14.7842 15.6505C16.2338 13.9378 17.5731 12.5535 19.3378 10.957C23.7812 6.92538 28.2351 4.05573 32.5839 2.42387C33.2456 2.17632 33.3454 2.11064 33.3454 1.9136C33.3454 1.65089 33.2089 1.61552 32.2687 1.62057C31.8065 1.62563 31.1553 1.65089 30.8244 1.6711Z" fill="#8143B1"/>
<path d="M73.6089 4.53938C73.4038 4.5877 73.2656 4.70045 73.1944 4.86956C73.1358 5.0105 73.1275 5.77556 73.1275 12.5081V19.9896L73.2238 20.1668C73.3828 20.4769 73.4414 20.489 74.6637 20.489C75.8693 20.489 75.9865 20.4688 76.1498 20.2111L76.2461 20.0662L76.2586 12.7376C76.267 8.70696 76.2586 5.29639 76.2461 5.15948C76.2293 5.00244 76.1833 4.86151 76.1247 4.77695C75.9572 4.53535 75.8944 4.52327 74.76 4.51522C74.1949 4.51119 73.6758 4.52327 73.6089 4.53938Z" fill="#8143B1"/>
<path d="M32.1922 5.26015C32.1127 5.30042 32.0122 5.39706 31.9704 5.47357C31.8992 5.60645 31.895 5.89234 31.9034 12.8866L31.9159 20.1588L32.0206 20.2675C32.2173 20.4769 32.3052 20.489 33.4941 20.489C34.7039 20.489 34.7834 20.4769 34.9676 20.2353C35.0555 20.1225 35.0555 20.0782 35.068 17.5857L35.0806 15.053H35.7169H36.3532L38.0066 17.5777C38.915 18.9669 39.702 20.1507 39.7522 20.2111C39.8066 20.2675 39.9406 20.3561 40.0578 20.4044C40.2629 20.489 40.3173 20.493 41.502 20.4809C42.6741 20.4688 42.7369 20.4648 42.8499 20.3843C43.0048 20.2715 43.0592 20.1225 43.0048 19.9333C42.9797 19.8527 42.2053 18.6447 41.276 17.2556C40.3508 15.8623 39.5973 14.7188 39.6057 14.7107C39.6141 14.7067 39.7229 14.6704 39.8485 14.6302C40.4471 14.4449 41.1253 14.0584 41.6025 13.6195C42.5569 12.7578 43.0718 11.5176 43.0718 10.1002C43.0718 8.75529 42.6155 7.58756 41.7573 6.72183C41.0415 6.00508 40.1708 5.5541 39.0197 5.30042C38.6262 5.21586 38.5299 5.21183 35.4741 5.19975C32.4769 5.18767 32.3262 5.18767 32.1922 5.26015ZM38.1113 7.8211C39.0239 8.06673 39.6266 8.69086 39.7857 9.55659C40.0118 10.7767 39.5513 11.8357 38.5927 12.2867C38.0987 12.5242 37.8099 12.5564 36.349 12.5564H35.0764V10.1364V7.71641L36.4704 7.73252C37.6132 7.74862 37.9062 7.76473 38.1113 7.8211Z" fill="#8143B1"/>
<path d="M49.7985 8.93301C47.5631 9.2028 45.7505 10.3866 44.8171 12.1745C44.5743 12.6416 44.3943 13.1409 44.2771 13.6563C44.1557 14.2039 44.1473 15.3676 44.2561 15.9193C44.4278 16.7608 44.7082 17.4292 45.1938 18.1259C47.0733 20.8479 51.6529 21.6089 54.6961 19.7003C55.2822 19.3379 55.8682 18.8507 55.9896 18.6292C56.1487 18.3393 56.0189 18.0574 55.5166 17.5823C55.1189 17.2118 54.9473 17.1071 54.7212 17.1071C54.5078 17.1071 54.3864 17.1635 53.9552 17.4534C52.984 18.1017 51.9585 18.3836 50.6943 18.3433C49.7943 18.3151 49.2752 18.1661 48.6389 17.7514C48.3208 17.542 47.8812 17.087 47.6971 16.7648C47.538 16.4991 47.3412 15.9676 47.3412 15.8186C47.3412 15.7421 47.4208 15.7381 51.7701 15.73C56.0985 15.7179 56.1989 15.7179 56.3622 15.6374C56.4836 15.577 56.5589 15.5045 56.6343 15.3555C56.7306 15.1663 56.7389 15.1139 56.7347 14.5703C56.7264 13.6321 56.538 12.855 56.1278 12.0617C55.8306 11.4859 55.5417 11.1034 55.0436 10.6202C54.1812 9.79069 53.1138 9.24709 51.8747 9.01354C51.364 8.9169 50.2757 8.87261 49.7985 8.93301ZM51.318 11.3732C51.4687 11.4054 51.7492 11.506 51.9459 11.5987C52.2389 11.7356 52.3687 11.8282 52.6785 12.1302C52.9254 12.3677 53.1054 12.5852 53.1975 12.7583C53.3608 13.0523 53.5408 13.5234 53.5115 13.5717C53.4989 13.5878 52.1259 13.6039 50.4557 13.6039C47.5966 13.6039 47.425 13.5999 47.425 13.5314C47.425 13.4066 47.7054 12.8469 47.8938 12.5892C48.6598 11.5584 49.9785 11.0913 51.318 11.3732Z" fill="#8143B1"/>
<path d="M62.7252 8.93759C61.5112 9.09463 60.4438 9.61005 59.5605 10.4597C59.0666 10.9348 58.7903 11.3093 58.4722 11.9173C57.9447 12.9361 57.7145 14.1038 57.8066 15.3319C58.0075 18.0499 59.7866 20.1398 62.3401 20.6552C62.901 20.7679 63.9182 20.78 64.5043 20.6753C65.5257 20.4981 66.3796 20.0834 67.1038 19.415L67.3843 19.1572L67.3968 19.6123C67.4177 20.1317 67.4805 20.2887 67.7275 20.4136C67.8573 20.482 67.9787 20.4901 68.9415 20.4901C70.1136 20.4901 70.2015 20.474 70.3815 20.2364C70.4694 20.1236 70.4694 20.1196 70.4694 14.8366C70.4694 9.81138 70.4652 9.54965 70.394 9.44495C70.3522 9.38053 70.2601 9.29597 70.1847 9.2557C70.0591 9.18322 69.9671 9.17517 68.9415 9.17517C67.9159 9.17517 67.8238 9.18322 67.6982 9.2557C67.4764 9.38455 67.4177 9.53757 67.401 10.053L67.3843 10.508L67.1038 10.2422C66.4508 9.62615 65.6136 9.19933 64.6926 9.0141C64.2071 8.91746 63.1857 8.87719 62.7252 8.93759ZM64.9857 11.6475C66.0657 11.9294 66.9782 12.8273 67.288 13.9065C67.3801 14.2447 67.4177 15.0178 67.355 15.3963C67.2377 16.0809 66.9573 16.6325 66.4591 17.1318C65.735 17.8687 64.7596 18.211 63.7424 18.0781C63.014 17.9855 62.541 17.7721 62.0052 17.2929C61.2768 16.6406 60.9419 15.8836 60.9294 14.8729C60.9252 14.2085 61.0047 13.8461 61.2894 13.2864C61.4736 12.9119 61.5447 12.8233 61.9047 12.477C62.4322 11.9656 62.9219 11.7039 63.5624 11.5912C63.8638 11.5388 64.6884 11.571 64.9857 11.6475Z" fill="#8143B1"/>
<defs>
<linearGradient id="paint0_linear" x1="12.7849" y1="22.1072" x2="12.7849" y2="2.67498" gradientUnits="userSpaceOnUse">
<stop stop-color="#FFC905"/>
<stop offset="1" stop-color="#D90DEE"/>
</linearGradient>
</defs>
</svg>
